<svg width="119" height="164" viewBox="0 0 119 164" fill="none" xmlns="http://www.w3.org/2000/svg">
<path fill-rule="evenodd" clip-rule="evenodd" d="M3.18175 99.219C1.25243 104.308 0.174602 109.737 0 115.246C0.26624 118.644 1.3215 121.91 3.06494 124.732C6.34553 128.902 10.2907 132.382 14.7073 134.999L43.2318 155.851C46.7417 158.919 50.6884 161.329 54.913 162.985C57.6559 163.702 60.5138 163.702 63.2568 162.985C67.5095 161.349 71.488 158.956 75.0326 155.9L103.863 135.036C108.325 132.411 112.315 128.917 115.639 124.726C117.395 121.888 118.449 118.598 118.698 115.179C118.509 109.625 117.402 104.155 115.433 99.0358L90.2182 11.9006C89.6554 9.07866 88.6381 6.38971 87.2144 3.96038C86.1775 2.57691 84.8378 1.5051 83.3207 0.845356C80.7858 0.0907035 78.1487 -0.161632 75.5332 0.100193H42.7033C40.0868 -0.160968 37.4488 0.0976585 34.9158 0.863679C33.3951 1.52209 32.0542 2.59902 31.0221 3.99092C29.6046 6.42038 28.5966 9.10994 28.0461 11.9312L3.18175 99.219ZM76.8292 18.5949C78.002 20.6423 78.8327 22.903 79.2823 25.2708L100.932 103.354C92.8001 98.7228 84.0719 95.4829 75.0492 93.7464L60.9817 41.4628C60.8952 41.154 60.7426 40.8725 60.5366 40.6417C60.3307 40.411 60.0774 40.2379 59.7979 40.1368C59.5184 40.0357 59.221 40.0096 58.9305 40.0607C58.64 40.1119 58.3648 40.2387 58.1281 40.4306C57.8105 40.6858 57.5779 41.0484 57.4662 41.4628L43.5599 93.728C34.4947 95.4608 25.7259 98.7136 17.5608 103.372L39.2991 25.2891C39.7441 22.9169 40.5771 20.653 41.7577 18.6071C42.6187 17.4468 43.7321 16.5435 44.9951 15.9807C47.1228 15.3492 49.3366 15.1423 51.531 15.3699H67.0671C69.2633 15.1421 71.4789 15.349 73.6086 15.9807C74.8753 16.5452 75.991 17.453 76.8515 18.6193L76.8292 18.5949ZM60.0694 112.736C66.7639 113.161 73.4025 111.183 78.9819 107.098C79.6161 109.291 79.841 111.601 79.6432 113.891C79.4453 116.181 78.8288 118.403 77.8305 120.426C75.7782 124.256 72.7997 127.387 69.2253 129.471C65.4762 132.086 62.2499 134.358 62.2499 140.386C62.2453 142.32 62.6429 144.229 63.4125 145.969C60.8842 144.816 58.7238 142.866 57.2041 140.366C55.6844 137.865 54.8736 134.927 54.8741 131.921V131.548C54.8741 127.376 54.8741 122.24 49.5229 122.24C48.777 122.239 48.0381 122.399 47.348 122.71C45.9592 123.341 44.8551 124.552 44.2775 126.075C43.9907 126.832 43.8414 127.644 43.8381 128.464C40.1703 124.065 38.2001 118.276 38.3423 112.314C38.3163 109.734 38.6445 107.164 39.3158 104.692C41.5407 109.315 49.9958 112.754 60.0694 112.754V112.736Z" fill="#F1E3C2"/>
</svg>
