<svg width="261" height="145" viewBox="0 0 261 145" fill="none" xmlns="http://www.w3.org/2000/svg">
<path d="M72.4047 31.1055C71.8403 31.1055 71.4477 31.0806 71.2024 31.0557C69.0921 31.0557 66.9819 31.2049 64.8471 31.5282C62.7124 31.8267 60.5776 32.1997 58.4183 32.6723C56.2836 33.1448 54.1243 33.6422 51.965 34.1396C49.8302 34.637 47.6709 35.1096 45.5116 35.5572C44.9472 35.6816 43.9903 35.8059 42.6898 36.0298C41.4138 36.2536 39.9416 36.5023 38.2976 36.751C36.6781 36.9997 34.9605 37.2484 33.1447 37.522C31.3289 37.7955 29.6358 38.0442 28.0899 38.2183C26.495 38.4422 25.1209 38.6411 23.9676 38.7655C22.7898 38.9147 21.9801 38.9893 21.5384 38.9893C19.281 38.9893 16.9745 39.1137 14.717 39.3624C12.4105 39.6359 10.3739 40.009 8.50901 40.5064C7.69927 40.7302 7.0613 41.0535 6.52147 41.4017C6.00619 41.7748 5.61359 42.1976 5.36821 42.7198C5.0983 43.1924 4.902 43.7644 4.82839 44.3364C4.7057 44.9333 4.65662 45.555 4.65662 46.1768C4.65662 46.5498 4.65662 46.7737 4.65662 46.8483C4.68116 46.9726 4.7057 47.1467 4.77931 47.4452C4.77931 48.2659 5.04922 48.9374 5.63812 49.4099C6.25156 49.9322 6.91407 50.3301 7.72381 50.5788C8.50901 50.8773 9.31875 51.0762 10.153 51.1757C10.9873 51.2503 11.6253 51.3249 12.0915 51.3249C14.2999 51.3249 16.6555 51.2006 19.1583 50.9021C13.5392 63.1631 22.5935 92.1867 32.3595 101.414C32.7766 101.836 33.1938 102.184 33.6109 102.508C38.0276 105.89 45.6833 107.979 54.1488 108.875C53.7071 109.621 53.2654 110.292 52.8483 110.914C52.1367 111.934 51.376 112.68 50.6154 113.227C50.37 113.401 50.1001 113.525 49.8547 113.6C48.1371 113.326 46.4195 112.928 44.7264 112.456C40.9967 111.386 37.3651 109.869 34.0035 107.905C27.2066 103.95 21.563 98.2053 18.6185 90.8437L9.2206 62.3176C7.79742 57.9653 4.92654 54.3094 1.02507 51.8721L0.755158 51.7228C-0.177267 48.3654 -1.06062 36.9251 3.42975 36.1292C34.0771 30.8319 55.94 30.0858 72.4047 31.1055Z" fill="#CECECE"/>
<path d="M130.804 42.645H130.51C130.51 42.645 111.64 41.6502 109.923 53.1651C114.315 62.2178 108.229 82.1389 99.8867 94.7232C99.2242 95.718 98.5371 96.688 97.8256 97.5833C98.0464 98.0061 98.2672 98.4786 98.5126 99.0257C99.077 100.195 99.5923 101.339 100.009 102.383C97.6047 104.597 94.9301 106.512 92.0592 108.054C88.7221 109.869 85.1151 111.212 81.3118 112.008C71.0306 114.172 60.2095 115.415 49.8793 113.6C50.1246 113.525 50.3945 113.401 50.6399 113.227C51.4006 112.679 52.1612 111.933 52.8728 110.914C53.29 110.292 53.7316 109.62 54.1733 108.874C45.7079 107.979 38.0522 105.89 33.6354 102.508C33.2183 102.184 32.8011 101.836 32.384 101.413C22.6181 92.1864 13.5637 63.1629 19.1828 50.9019C16.68 51.2003 14.3244 51.3247 12.116 51.3247C11.6498 51.3247 11.0118 51.2501 10.1776 51.1755C9.34328 51.076 8.53354 50.877 7.74834 50.5786C6.9386 50.3299 6.27609 49.932 5.66265 49.4097C5.07375 48.9372 4.80384 48.2657 4.80384 47.4449C4.73023 47.1465 4.70569 46.9724 4.68115 46.8481C4.68115 46.7735 4.68115 46.5496 4.68115 46.1766C4.68115 45.5548 4.73023 44.9331 4.85292 44.3362C4.92653 43.7642 5.12283 43.1921 5.39274 42.7196C5.63812 42.1973 6.03072 41.7745 6.546 41.4015C7.08583 41.0533 7.7238 40.73 8.53354 40.5062C10.3984 40.0088 12.435 39.6357 14.7415 39.3621C16.999 39.1134 19.3055 38.9891 21.563 38.9891C22.0046 38.9891 22.8144 38.9145 23.9922 38.7652C25.1454 38.6409 26.5195 38.4419 28.1145 38.2181C29.6603 38.044 31.3534 37.7953 33.1692 37.5217C34.985 37.2482 36.7026 36.9995 38.3221 36.7508C39.9661 36.5021 41.4384 36.2534 42.7143 36.0295C44.0148 35.8057 44.9718 35.6813 45.5361 35.557C47.6954 35.1093 49.8547 34.6368 51.9895 34.1394C54.1488 33.642 56.3081 33.1446 58.4428 32.672C60.6021 32.1995 62.7369 31.8265 64.8717 31.528C67.0064 31.2047 69.1167 31.0555 71.2269 31.0555C71.4723 31.0804 71.8649 31.1052 72.4292 31.1052H72.5028C73.0917 31.1052 73.7543 31.2047 74.5395 31.2544C76.0362 31.3539 77.4594 31.4783 78.8581 31.6275C80.3058 31.7518 81.7044 31.9011 83.054 32.0752C93.556 33.3435 101.506 35.2337 108.279 36.5767C114.609 37.845 122.535 40.4315 127.001 41.9984C128.252 42.446 129.528 42.645 130.829 42.645H130.804Z" fill="#CECECE"/>
<path d="M260.215 51.7226L259.969 51.8719C256.068 54.3091 253.173 57.9651 251.749 62.3173L242.376 90.8435C242.376 90.8435 242.278 91.117 242.204 91.2414C239.922 96.7128 236.144 101.264 231.53 104.845C227.04 108.327 221.74 110.889 216.244 112.456C204.441 115.813 191.706 114.545 179.683 112.008C171.512 110.292 164.15 106.039 158.556 99.9708L160.862 96.4393C161.304 97.061 161.795 97.6828 162.286 98.2548C163.586 100.021 164.96 101.463 166.31 102.508C172.69 107.407 185.891 109.571 198.429 109.372C198.797 109.795 199.215 110.068 199.681 110.292C200.417 110.59 201.251 110.715 202.208 110.715H202.282C202.797 110.715 203.361 110.64 204.024 110.441C204.637 110.292 205.324 110.068 206.011 109.819C206.723 109.571 207.435 109.322 208.097 109.048C208.809 108.8 209.471 108.576 210.085 108.452C210.109 108.452 210.134 108.427 210.183 108.427C211.95 108.178 213.643 107.855 215.213 107.457C215.213 107.457 215.262 107.457 215.311 107.457C218.158 106.785 220.66 105.915 222.648 104.895C226.23 103.055 229.936 98.9263 233.248 93.6787C241.223 81.0446 246.866 61.994 242.597 53.19C241.076 50.0563 238.205 47.3455 234.426 45.1072C235.947 44.8833 237.542 44.6098 239.211 44.3362C241.566 43.9134 243.971 43.3662 246.425 42.7445C247.357 42.4958 248.142 42.272 248.78 42.0481C249.443 41.874 250.105 41.501 250.817 41.0533C251.136 40.8544 251.504 40.4813 251.823 39.959C252.117 39.4616 252.412 38.9145 252.657 38.3176C252.927 37.7207 253.123 37.1487 253.246 36.5269C253.369 36.1041 253.442 35.756 253.442 35.4575C254.792 35.6814 256.166 35.9052 257.565 36.1539C262.055 36.9497 261.196 48.39 260.215 51.7475V51.7226Z" fill="#CECECE"/>
<path d="M237.763 33.1695C237.763 33.1695 237.616 33.1943 237.542 33.2192C235.088 33.7664 232.684 34.1145 230.304 34.3632C227.923 34.5871 225.568 34.6865 223.212 34.6865C221.961 34.6865 220.808 34.6865 219.752 34.6368C218.697 34.6119 217.863 34.5871 217.274 34.5871C217.004 34.5871 216.563 34.5373 215.949 34.3881C215.336 34.2638 214.698 34.0897 214.011 33.8907C213.348 33.7415 212.686 33.5674 212.072 33.443C211.41 33.2938 210.943 33.2192 210.674 33.2192C210.158 33.2192 209.569 33.3436 208.858 33.642C208.171 33.9156 207.459 34.2886 206.748 34.7612C206.085 35.2088 205.423 35.7062 204.858 36.2534C204.613 36.4772 204.392 36.701 204.22 36.9249C203.582 36.9 202.969 36.8503 202.331 36.8005C198.797 36.5767 195.239 36.5021 191.706 36.6016C179.364 36.9 167.537 39.1632 159.783 43.3911C159.341 42.8688 158.85 42.3466 158.31 41.8492C157.673 41.2523 157.01 40.8295 156.298 40.4564C155.587 40.1083 154.973 40.0088 154.434 40.158C152.912 40.6057 151.833 41.4512 151.17 42.7196C150.557 43.988 150.189 45.5051 150.14 47.2709C150.066 48.8377 150.14 50.504 150.385 52.3195C148.692 49.2854 143.563 42.7445 130.804 42.645C131.957 42.645 133.086 42.4958 134.19 42.1476L152.765 36.5767C162.874 34.5622 175.634 31.3291 195.657 30.8068C196.638 30.7571 197.644 30.7322 198.65 30.7322C209.447 30.583 222.255 31.2296 237.738 33.1695H237.763Z" fill="#CECECE"/>
<path d="M253.418 35.4326C253.418 35.7311 253.344 36.0793 253.222 36.5021C253.099 37.1238 252.903 37.6958 252.633 38.2927C252.387 38.8896 252.093 39.4367 251.798 39.9341C251.479 40.4564 251.111 40.8295 250.792 41.0284C250.081 41.4761 249.418 41.8491 248.756 42.0232C248.118 42.2471 247.333 42.4709 246.4 42.7196C243.946 43.3414 241.542 43.8885 239.186 44.3113C237.518 44.5849 235.923 44.8584 234.401 45.0823C238.18 47.3206 241.051 50.0314 242.572 53.1651C246.842 61.9691 241.198 81.0197 233.224 93.6538C229.911 98.9014 226.206 103.03 222.623 104.87C220.636 105.89 218.133 106.76 215.287 107.432C215.238 107.432 215.213 107.432 215.188 107.432C213.618 107.83 211.925 108.153 210.158 108.402C210.109 108.402 210.085 108.427 210.06 108.427C209.447 108.551 208.784 108.775 208.073 109.024C207.41 109.297 206.699 109.546 205.987 109.795C205.3 110.043 204.613 110.267 203.999 110.416C203.337 110.615 202.773 110.69 202.257 110.69H202.184C201.227 110.69 200.392 110.566 199.656 110.267C199.19 110.043 198.773 109.77 198.405 109.347C185.866 109.546 172.665 107.382 166.285 102.483C164.936 101.438 163.562 99.9957 162.261 98.2299C161.77 97.6579 161.28 97.0361 160.838 96.4144C160.617 96.1159 160.396 95.7926 160.175 95.4693C158.973 93.6786 157.918 91.7885 157.035 89.8238C156.151 87.9585 155.464 86.0186 154.924 84.1534C154.9 84.0788 154.875 84.029 154.851 83.9544C151.121 74.0063 149.06 62.4914 150.63 54.6324C150.606 54.3589 150.557 54.0853 150.532 53.8117C150.508 53.5381 150.459 53.2894 150.434 53.0407C150.409 52.792 150.36 52.5433 150.36 52.2946C150.115 50.4791 150.041 48.8128 150.115 47.246C150.164 45.4802 150.532 43.9631 151.146 42.6947C151.808 41.4264 152.888 40.5808 154.409 40.1331C154.949 39.9839 155.562 40.0834 156.274 40.4315C156.986 40.8046 157.648 41.2274 158.286 41.8243C158.826 42.3217 159.317 42.844 159.758 43.3662C167.512 39.1383 179.339 36.8751 191.682 36.5767C195.215 36.4772 198.773 36.5518 202.306 36.7756C202.944 36.8254 203.558 36.8751 204.196 36.9C204.367 36.6761 204.588 36.4523 204.834 36.2285C205.398 35.6813 206.061 35.1839 206.723 34.7363C207.435 34.2637 208.146 33.8907 208.833 33.6171C209.545 33.3187 210.134 33.1943 210.649 33.1943C210.919 33.1943 211.385 33.2689 212.048 33.4181C212.661 33.5425 213.324 33.7166 213.986 33.8658C214.673 34.0648 215.311 34.2389 215.925 34.3632C216.538 34.5124 216.98 34.5622 217.25 34.5622C217.839 34.5622 218.673 34.587 219.728 34.6119C220.783 34.6617 221.936 34.6617 223.188 34.6617C225.543 34.6617 227.899 34.5622 230.279 34.3383C232.659 34.0896 235.064 33.7415 237.518 33.1943C237.591 33.1694 237.665 33.1694 237.738 33.1446C242.695 33.7663 247.897 34.5124 253.418 35.4078V35.4326Z" fill="#CECECE"/>
<path d="M99.8867 94.7232C99.2242 95.718 98.5372 96.688 97.8256 97.5833C95.4945 100.692 92.9917 103.129 90.5625 104.522C90.3662 104.671 90.1699 104.771 89.9736 104.87C82.3179 108.8 67.3009 110.267 54.1733 108.874C45.7079 107.979 38.0522 105.89 33.6354 102.508C33.2183 102.184 32.8012 101.836 32.384 101.413C22.6181 92.1865 13.5637 63.1629 19.1828 50.9019C19.5754 50.0066 20.0662 49.1859 20.6551 48.4647C29.9548 37.0741 60.9702 33.9156 84.1091 38.7404C90.6852 40.1083 96.5987 42.1228 101.236 44.759C105.285 47.0719 108.328 49.8823 109.923 53.1651C114.315 62.2179 108.229 82.1389 99.8867 94.7232Z" fill="#F8F8F6"/>
<path d="M233.248 93.6538C229.935 98.9015 226.23 103.03 222.648 104.87C220.66 105.89 218.157 106.76 215.311 107.432C215.262 107.432 215.238 107.432 215.213 107.432C213.643 107.83 211.95 108.153 210.183 108.402C210.134 108.402 210.109 108.427 210.085 108.427C206.429 108.974 202.478 109.297 198.429 109.347C185.891 109.546 172.689 107.382 166.31 102.483C164.96 101.438 163.586 99.9957 162.286 98.23C159.562 94.574 156.985 89.6 154.949 84.1534C154.924 84.0788 154.9 84.0291 154.875 83.9545C151.146 74.0064 149.084 62.4915 150.655 54.6325C150.704 54.3589 150.777 54.0853 150.851 53.8118C150.876 53.6874 150.9 53.5631 150.949 53.4387C151.465 51.474 152.25 49.7828 153.329 48.4398C154.9 46.5248 157.108 44.8336 159.783 43.3663C167.537 39.1383 179.364 36.8752 191.706 36.5767C195.239 36.4772 198.797 36.5518 202.331 36.7757C202.969 36.8254 203.582 36.8752 204.22 36.9C215.9 37.87 226.966 40.5808 234.426 45.0575C238.205 47.2958 241.076 50.0066 242.597 53.1403C246.866 61.9443 241.223 80.9949 233.248 93.629V93.6538Z" fill="#F8F8F6"/>
<path d="M249.05 94.2755C249.295 95.0714 249.418 95.917 249.418 96.8123C249.418 97.1605 249.271 97.5833 249.026 98.1802C248.78 98.777 248.437 99.3491 247.995 99.9211C247.553 100.493 247.013 101.065 246.425 101.538C245.811 102.01 245.149 102.383 244.412 102.532C242.081 103.154 239.726 103.602 237.346 103.95C235.554 104.199 233.616 104.472 231.53 104.845C236.143 101.264 239.922 96.7128 242.204 91.2414C242.204 91.2165 242.278 91.2165 242.302 91.1916C242.768 90.9678 243.235 90.8186 243.701 90.6694C244.143 90.4953 244.609 90.4455 245.1 90.4455C245.664 90.4455 246.179 90.6196 246.719 90.9181C247.234 91.2414 247.701 91.689 248.118 92.2362C248.486 92.8082 248.805 93.4797 249.05 94.2755Z" fill="#3B5BA5"/>
<path d="M253.467 35.1342C253.467 35.1342 253.467 35.3083 253.442 35.4326C253.442 35.7311 253.369 36.0793 253.246 36.5021C253.123 37.1238 252.927 37.6958 252.657 38.2927C252.412 38.8896 252.117 39.4367 251.823 39.9342C251.504 40.4564 251.136 40.8295 250.817 41.0284C250.105 41.4761 249.443 41.8492 248.78 42.0232C248.142 42.2471 247.357 42.4709 246.425 42.7196C243.971 43.3414 241.566 43.8885 239.211 44.3113C237.542 44.5849 235.947 44.8585 234.426 45.0823C233.812 45.1818 233.199 45.2564 232.585 45.331C230.5 45.6046 228.561 45.8035 226.868 45.903C225.126 46.0025 223.654 46.0274 222.451 46.0274H214.182C213.471 46.0274 212.759 46.0025 212.121 45.9527C212.048 47.1216 211.949 48.5144 211.9 50.1558C211.827 51.847 211.729 53.5133 211.68 55.2293C211.606 56.9702 211.532 58.6117 211.434 60.2282C211.361 61.8448 211.262 63.1878 211.115 64.2821C211.827 64.3567 212.686 64.4313 213.667 64.481C214.624 64.5308 215.556 64.5308 216.464 64.5308C217.789 64.5308 219.065 64.481 220.366 64.3318C221.666 64.2323 222.721 64.108 223.58 64.0085C223.997 63.909 224.66 63.8593 225.568 63.7847C226.476 63.7349 227.433 63.6355 228.463 63.536C229.494 63.4365 230.5 63.2873 231.457 63.1629C232.438 63.0137 233.199 62.8396 233.763 62.6904C234.279 62.3422 234.794 62.0686 235.26 61.8448C235.726 61.5961 236.192 61.3971 236.61 61.223C237.051 61.0738 237.518 60.9495 237.984 60.8997C238.425 60.8251 238.941 60.8003 239.456 60.8003C240.192 60.8003 240.781 60.9495 241.272 61.3474C241.738 61.6956 242.106 62.193 242.4 62.8147C242.67 63.4365 242.818 64.1329 242.94 64.9287C243.038 65.6997 243.088 66.5204 243.088 67.3909C243.088 68.4354 242.867 69.3059 242.45 69.9525C242.008 70.6488 241.468 71.196 240.806 71.6437C240.192 72.0665 239.505 72.4146 238.818 72.6385C238.106 72.8623 237.493 73.0364 237.002 73.1856C236.536 73.31 235.726 73.4841 234.573 73.6084C233.42 73.7576 232.095 73.882 230.573 74.0561C229.052 74.2302 227.433 74.3545 225.74 74.5037C224.071 74.653 222.451 74.7773 220.93 74.8519C219.409 74.9265 218.084 75.026 216.881 75.1006C215.704 75.1504 214.845 75.1752 214.33 75.1752C213.52 75.1752 212.759 75.2996 212.072 75.4488C211.385 75.6229 210.649 75.8716 209.864 76.1452C209.545 77.8363 209.299 79.6519 209.103 81.6415C208.931 83.6062 208.661 85.6705 208.269 87.8093C208.146 88.6549 207.999 89.5253 207.876 90.3958C207.704 91.2663 207.557 92.1118 207.459 92.9077C207.361 93.7035 207.238 94.4248 207.165 95.0963C207.091 95.7429 207.017 96.3149 206.993 96.7377C207.557 96.7377 208.22 96.7377 208.956 96.688C209.692 96.6631 210.428 96.6133 211.213 96.5139C212.048 96.4392 212.857 96.3895 213.667 96.2652C214.452 96.1906 215.237 96.1159 215.949 95.9916C217.838 95.7926 219.458 95.5937 220.783 95.4444C222.157 95.2952 223.359 95.146 224.414 95.0217C225.494 94.8973 226.5 94.7729 227.433 94.6237C228.34 94.4994 229.322 94.3004 230.402 94.1015C230.941 94.002 231.629 93.8776 232.414 93.7781C232.684 93.7284 232.954 93.7035 233.248 93.6538C229.935 98.9014 226.23 103.03 222.648 104.87C220.66 105.89 218.157 106.76 215.311 107.432C215.262 107.432 215.237 107.432 215.213 107.432C214.428 107.581 213.692 107.705 213.029 107.805C211.753 108.054 210.796 108.228 210.183 108.402C210.134 108.402 210.109 108.427 210.085 108.427C209.471 108.551 208.809 108.775 208.097 109.024C207.435 109.297 206.723 109.546 206.011 109.795C205.324 110.043 204.637 110.267 204.024 110.416C203.361 110.615 202.797 110.69 202.282 110.69H202.208C201.251 110.69 200.417 110.566 199.681 110.267C199.214 110.043 198.797 109.77 198.429 109.347C198.233 109.148 198.061 108.924 197.889 108.675C197.399 107.904 197.055 106.885 196.81 105.616C196.54 104.323 196.417 102.707 196.417 100.792C196.245 100.916 196.074 101.04 195.877 101.165C192.933 103.204 189.62 104.771 185.915 105.865C184.688 106.213 183.314 106.412 181.768 106.462C180.222 106.512 178.677 106.462 177.131 106.288C175.609 106.114 174.162 105.84 172.763 105.442C171.413 105.094 170.285 104.622 169.328 104.124C167.512 103.129 165.843 101.886 164.322 100.394C163.611 99.7221 162.923 99.0009 162.285 98.2299C161.795 97.6579 161.304 97.0361 160.862 96.4144C160.641 96.1159 160.421 95.7926 160.2 95.4693C158.997 93.6787 157.942 91.7885 157.059 89.8238C156.176 87.9585 155.489 86.0186 154.949 84.1534C154.924 84.0788 154.9 84.029 154.875 83.9544C154.581 82.9347 154.311 81.7658 154.065 80.5223C153.82 79.2539 153.624 77.9358 153.403 76.568C153.182 75.1752 153.01 73.8074 152.863 72.4146C152.691 70.997 152.544 69.6789 152.397 68.4603C152.225 66.8188 152.029 65.252 151.833 63.7598C151.612 62.2676 151.44 60.85 151.293 59.4573C151.096 57.8407 150.876 56.2241 150.655 54.6324C150.63 54.3589 150.581 54.0853 150.557 53.8117C150.532 53.5382 150.483 53.2895 150.458 53.0407C150.434 52.792 150.385 52.5433 150.385 52.2946C150.139 50.4791 150.066 48.8128 150.139 47.246C150.188 45.4802 150.557 43.9631 151.17 42.6947C151.833 41.4264 152.912 40.5808 154.433 40.1331C154.973 39.9839 155.587 40.0834 156.298 40.4316C157.01 40.8046 157.672 41.2274 158.31 41.8243C158.85 42.3217 159.341 42.844 159.783 43.3662C159.856 43.4408 159.905 43.5403 159.979 43.6149C160.445 44.2616 160.74 44.7838 160.838 45.1569C160.911 45.3559 160.96 45.7786 161.01 46.4253C161.059 47.0968 161.108 47.8429 161.157 48.7631C161.181 49.6335 161.206 50.6035 161.255 51.648C161.279 52.6677 161.304 53.6128 161.329 54.5081C161.353 55.4034 161.402 56.1744 161.427 56.8708C161.451 57.5174 161.476 57.965 161.5 58.164C161.549 58.7858 161.672 59.6811 161.819 60.85C161.966 61.994 162.114 63.2873 162.31 64.68C162.482 66.0976 162.654 67.5401 162.874 69.1069C163.095 70.6489 163.341 72.1411 163.586 73.5587C163.831 75.0011 164.052 76.3193 164.298 77.513C164.518 78.7317 164.715 79.7265 164.936 80.4477C166.187 84.8746 168.027 88.63 170.407 91.7637C171.021 92.5595 171.855 93.2807 172.935 93.9274C174.039 94.5491 175.217 95.0714 176.419 95.4693C177.646 95.8921 178.873 96.1657 180.026 96.29C181.228 96.4144 182.185 96.3646 182.922 96.1408C187.068 94.9222 190.381 93.2559 192.835 91.1916C195.264 89.1025 196.785 86.4166 197.399 83.1586C197.669 81.6166 197.816 80.0747 197.767 78.5327C197.718 76.9908 197.62 75.4737 197.423 74.0063C197.276 72.5141 197.055 71.0965 196.81 69.6789C196.564 68.2862 196.344 66.9681 196.221 65.7246C195.607 62.6158 195.019 59.6314 194.43 56.821C193.792 54.0107 193.252 51.3496 192.786 48.8626C192.344 46.4004 191.976 44.1372 191.78 42.0979C191.559 40.0336 191.534 38.243 191.681 36.6762C191.681 36.6513 191.681 36.6015 191.706 36.5767C195.239 36.4772 198.797 36.5518 202.331 36.7756C202.527 37.5715 202.699 38.4917 202.846 39.4865C202.846 39.5611 202.871 39.6108 202.871 39.6854C203.067 39.0886 203.312 38.4917 203.607 37.8451C203.754 37.5217 203.95 37.1984 204.22 36.9C204.392 36.6762 204.613 36.4523 204.858 36.2285C205.422 35.6813 206.085 35.1839 206.747 34.7363C207.459 34.2637 208.171 33.8907 208.858 33.6171C209.569 33.3187 210.158 33.1943 210.673 33.1943C210.943 33.1943 211.41 33.2689 212.072 33.4182C212.686 33.5425 213.348 33.7166 214.011 33.8658C214.698 34.0648 215.336 34.2389 215.949 34.3632C216.562 34.5124 217.004 34.5622 217.274 34.5622C217.863 34.5622 218.697 34.5871 219.752 34.6119C220.807 34.6617 221.961 34.6617 223.212 34.6617C225.568 34.6617 227.923 34.5622 230.303 34.3384C232.684 34.0897 235.088 33.7415 237.542 33.1943C237.616 33.1695 237.689 33.1695 237.763 33.1446C238.793 32.8959 239.75 32.6223 240.634 32.2493C241.566 31.8762 242.523 31.4783 243.456 31.1052C244.363 30.7322 245.296 30.4089 246.204 30.1602C247.161 29.8866 248.142 29.7622 249.173 29.7622C249.688 29.7622 250.203 29.9115 250.67 30.2099C251.185 30.5332 251.651 30.9063 252.068 31.4285C252.461 31.9508 252.829 32.498 253.099 33.1446C253.369 33.7912 253.467 34.413 253.467 35.1093V35.1342Z" fill="#3B5BA5"/>
<path d="M160.862 96.4393C160.911 100.269 158.556 99.9708 158.556 99.9708C157.01 98.3045 155.611 96.489 154.36 94.5491C148.495 85.4964 143.22 73.2602 139.883 63.1132C138.239 58.0645 136.3 56.6469 130.485 56.6469C121.627 56.6469 121.112 63.1132 121.112 63.1132C119.075 73.5836 112.523 85.4715 106.683 94.4994C104.794 97.4341 102.537 100.07 100.009 102.383C99.5921 101.339 99.0769 100.195 98.5125 99.0258C98.2671 98.4786 98.0463 98.0061 97.8254 97.5833C98.537 96.688 99.2241 95.718 99.8866 94.7232C108.229 82.1389 114.315 62.2179 109.922 53.1651C111.64 41.6502 130.509 42.645 130.509 42.645H130.804C143.563 42.7445 148.692 49.2854 150.385 52.3195C150.385 52.5682 150.434 52.8169 150.458 53.0656C150.483 53.3143 150.532 53.563 150.557 53.8366C150.581 54.1102 150.63 54.3838 150.655 54.6573C149.084 62.5163 151.145 74.0312 154.875 83.9793C154.9 84.0539 154.924 84.1036 154.949 84.1783C155.489 86.0435 156.176 87.9834 157.059 89.8487C157.942 91.8134 158.997 93.7035 160.2 95.4942C160.421 95.8175 160.862 96.0662 160.862 96.4393Z" fill="#EECA39"/>
<path d="M44.6281 112.456C40.8984 111.386 37.2669 109.869 33.9052 107.904C33.9788 108.079 34.077 108.228 34.1751 108.377C34.6413 109.073 35.1566 109.745 35.7455 110.292C36.3344 110.789 36.9479 111.212 37.5613 111.56C38.1993 111.884 38.5673 112.282 39.0581 112.58C40.285 113.401 43.3767 114.619 45.0207 114.42C45.9531 114.296 46.7629 114.172 48.0879 113.998C48.6523 113.923 49.2166 113.848 49.7565 113.6C48.0388 113.326 46.3212 112.928 44.6281 112.456ZM74.3921 31.2544C73.6069 31.2047 72.9444 31.1301 72.3555 31.1052H72.2819C71.7175 31.1052 71.3249 31.0804 71.0796 31.0555C68.9693 31.0555 66.8591 31.2047 64.7243 31.528C62.5896 31.8265 60.4548 32.1995 58.2955 32.672C56.1607 33.1446 54.0014 33.642 51.8421 34.1394C49.7074 34.6368 47.5481 35.1093 45.3888 35.557C44.8244 35.6813 43.8675 35.8057 42.567 36.0295C41.291 36.2534 39.8188 36.5021 38.1747 36.7508C36.5553 36.9995 34.8376 37.2482 33.0219 37.5217C31.2061 37.7953 29.513 38.044 27.9671 38.2181C26.3722 38.4419 24.9981 38.6409 23.8448 38.7652C22.667 38.9145 21.8573 38.9891 21.4156 38.9891C19.1582 38.9891 16.8516 39.1134 14.5942 39.3621C12.2877 39.6357 10.2511 40.0088 8.3862 40.5062C7.57647 40.73 6.93849 41.0533 6.39866 41.4015C5.88338 41.7745 5.49078 42.1973 5.2454 42.7196C4.97549 43.1921 4.77919 43.7642 4.70558 44.3362C4.58289 44.9331 4.53381 45.5548 4.53381 46.1766C4.53381 46.5496 4.53381 46.7735 4.53381 46.8481C4.55835 46.9724 4.58289 47.1465 4.6565 47.4449C4.6565 48.2657 4.92641 48.9372 5.51531 49.4097C6.12875 49.932 6.79126 50.3299 7.601 50.5786C8.3862 50.877 9.19594 51.076 10.0302 51.1755C10.8645 51.2501 11.5025 51.3247 11.9687 51.3247C14.1771 51.3247 16.5327 51.2003 19.0355 50.9019H19.1091C21.6119 50.6283 24.0902 50.3299 26.4458 50.0066C28.3352 49.7579 30.1019 49.534 31.7214 49.3102C33.3409 49.1361 34.6904 49.0615 35.721 49.0615C35.6719 49.8574 35.5247 51.2501 35.3039 53.2148C35.0585 55.1796 34.8131 57.4925 34.5187 60.1287C34.1997 62.765 33.9298 65.6002 33.6108 68.6095C33.2918 71.6188 32.9973 74.6032 32.752 77.4882C32.482 80.398 32.2612 83.1088 32.0649 85.6456C31.8931 88.2072 31.795 90.2963 31.795 91.9377C31.795 92.9574 31.795 94.0766 31.8441 95.3201C31.8441 96.5387 31.9422 97.832 32.0158 99.1004C32.0649 99.8713 32.1385 100.667 32.2367 101.413C32.6538 101.836 33.0709 102.184 33.4881 102.508C37.9048 105.89 45.5605 107.979 54.026 108.874C54.3695 108.352 54.6885 107.805 55.032 107.208C55.8663 105.79 56.7496 104.074 57.6575 102.159C58.4673 100.468 59.0562 99.1501 59.4978 98.2299C59.9395 97.3097 60.283 96.6382 60.5039 96.1906C60.7247 95.718 60.8965 95.4693 60.9946 95.3698C61.1419 95.2455 61.2645 95.1957 61.4363 95.146C62.9822 94.7729 64.5035 94.375 66.0248 94.0268C67.5707 93.6538 69.0429 93.3056 70.5152 92.9325C71.9629 92.5844 73.3861 92.1864 74.7356 91.8134C76.0852 91.4403 77.3366 91.0424 78.4899 90.6196C78.8334 90.4953 79.226 90.3212 79.6186 90.1222C80.0358 89.9233 80.4038 89.7243 80.7719 89.5502C81.1399 89.3761 81.4835 89.2518 81.7779 89.1025C82.0478 89.0031 82.2687 88.9284 82.3914 88.9284C83.0539 88.9284 83.6673 88.9284 84.2071 88.8538C84.747 88.8041 85.2868 88.6051 85.7775 88.3067C85.8266 88.5554 85.8511 88.7544 85.8757 88.8787C85.9248 88.9782 85.9493 89.1523 86.0474 89.3512C86.0965 89.5502 86.1456 89.7989 86.2438 90.172C86.3419 90.5201 86.44 91.0673 86.6118 91.7636C86.9063 93.0569 87.1762 94.1015 87.4215 94.8973C87.6669 95.718 87.9368 96.6133 88.2067 97.5833C88.403 98.2548 88.6484 99.1004 88.9429 100.145C89.2619 101.165 89.6054 102.234 89.998 103.378C90.1207 103.776 90.2679 104.149 90.4151 104.522C90.685 105.268 90.9795 106.014 91.2985 106.76C91.4948 107.208 91.6911 107.656 91.9119 108.054C92.2064 108.675 92.5008 109.247 92.8198 109.77C93.3596 110.665 93.9485 111.411 94.5129 111.983C95.0772 112.555 95.6416 112.829 96.2551 112.829C96.9176 112.829 97.5065 112.655 98.0954 112.306C98.6352 111.933 99.4449 111.734 99.813 111.138C100.23 110.566 100.647 110.018 100.893 109.223C101.113 108.452 101.089 108.029 101.089 107.158C101.113 106.139 100.647 104.398 99.8621 102.383C99.4449 101.339 98.9296 100.195 98.3653 99.0257C98.1199 98.4786 97.8991 98.0061 97.6782 97.5833C97.5065 97.2351 97.3592 96.9367 97.2366 96.6631C96.9666 96.0662 96.7213 95.5191 96.525 95.0714C96.3777 94.5989 96.206 94.1512 96.0833 93.7284C95.9606 93.3056 95.8134 92.8082 95.6171 92.2362C94.1939 87.6601 93.3351 84.3772 93.0161 82.3876C92.9425 82.0394 92.7216 81.2187 92.4272 79.8757C92.1327 78.5576 91.7647 77.0156 91.3475 75.225C90.9549 73.3846 90.5133 71.4696 90.0225 69.4053C89.5318 67.3411 89.0901 65.4012 88.6239 63.5608C88.2067 61.7204 87.8387 60.079 87.4952 58.736C87.2007 57.3682 87.0044 56.4728 86.8817 56.05C86.44 54.135 85.9248 52.2698 85.3849 50.3299C84.8696 48.4398 84.3053 46.5496 83.7409 44.759C83.8145 43.9631 83.8391 43.3414 83.8391 42.8937C83.8636 42.446 83.8881 41.9735 83.9127 41.501C83.9372 41.0533 83.9618 40.5062 83.9618 39.8844V37.2979C83.9863 36.129 83.9618 35.1591 83.8391 34.3632C83.7164 33.5922 83.4955 32.9705 83.2011 32.498C83.1029 32.3487 83.0048 32.1995 82.8821 32.0752C82.6367 31.8016 82.3423 31.6026 81.9497 31.4534C81.3853 31.2793 80.6737 31.1798 79.7904 31.1798C79.4468 31.155 79.0788 31.3042 78.6862 31.6275M59.9886 73.8571C59.3997 75.0757 58.9089 76.0706 58.5163 76.8913C58.0992 77.712 57.7311 78.5078 57.3631 79.2788C56.995 80.0747 56.6024 80.8954 56.2344 81.7658C55.8172 82.6612 55.3265 83.7554 54.6885 85.0736C53.4371 87.7347 52.3084 90.1222 51.2778 92.1864C50.2227 94.2507 49.2412 96.2652 48.3087 98.1553C48.1615 98.4786 47.9161 98.9511 47.5481 99.5729C47.2291 100.195 46.861 100.816 46.4684 101.438C46.1249 102.11 45.8059 102.657 45.536 103.154C45.2906 103.652 45.1434 103.9 45.1434 103.95C45.0452 103.975 44.9471 104 44.8244 104.025C44.7999 103.776 44.7753 103.378 44.7263 102.856C44.6281 101.911 44.5054 100.841 44.3827 99.6226C44.2601 98.404 44.1619 97.1854 44.0392 95.917C43.9656 94.6983 43.9165 93.7284 43.9165 93.0569C43.9411 88.1823 44.1864 83.2332 44.6527 78.2094C45.1434 73.2105 45.6342 68.1121 46.1494 62.9391L47.499 49.6087C47.499 49.0864 47.6217 48.4895 47.7935 47.818C47.9897 47.1465 48.1861 46.6988 48.4314 46.5745C48.7504 46.3507 49.2902 46.102 50.0264 45.8035C50.787 45.5548 51.6458 45.2812 52.6273 45.0325C53.6334 44.7838 54.713 44.5351 55.8663 44.2864C57.0196 44.0377 58.1974 43.8139 59.3506 43.6149C60.4794 43.4408 61.6081 43.2916 62.7123 43.217C63.7674 43.0927 64.7243 43.0429 65.5586 43.0429C66.8346 43.0678 67.9878 43.0678 68.9448 43.0927C69.9263 43.0927 70.8587 43.1424 71.7421 43.1921C72.2819 43.217 72.8217 43.217 73.3615 43.2668C73.0671 44.3113 72.7236 45.4056 72.4046 46.5994C72.2819 47.0719 72.0856 47.619 71.8648 48.2905C71.6439 48.9372 71.374 49.6335 71.0796 50.3796C70.7851 51.1009 70.4907 51.8718 70.1717 52.6677C69.8527 53.4884 69.5092 54.2594 69.1902 55.0552C68.405 56.8459 67.5707 58.736 66.7119 60.7256C65.9758 62.1432 65.0679 63.909 63.9391 66.0479C62.8104 68.1867 61.4854 70.7981 59.9886 73.8571ZM80.1584 78.2343C79.0542 78.6322 77.9991 79.055 76.9686 79.428C76.2079 79.6519 75.5945 79.8508 75.0301 80.0249C74.4903 80.1741 73.9504 80.3482 73.4352 80.5472C72.8953 80.7213 72.38 80.9202 71.8648 81.0943C71.374 81.3182 70.7606 81.5917 70.1471 81.8404C69.6564 82.0643 69.0184 82.1886 68.2332 82.2384C67.4235 82.2384 66.6628 82.3627 65.9512 82.4622C67.8161 77.7617 69.8036 73.1359 71.8648 68.6095C73.9504 64.0831 76.0116 59.7806 78.0482 55.677C78.5635 57.1443 79.0297 58.736 79.4959 60.5018C79.9376 62.2676 80.3793 64.0582 80.7964 65.9235C81.2626 67.7888 81.6552 69.654 82.0478 71.5193C82.465 73.4343 82.8576 75.225 83.2256 76.9659C82.2687 77.3887 81.2626 77.8115 80.1584 78.2343Z" fill="#3B5BA5"/>
</svg>
