<svg width="151" height="164" viewBox="0 0 151 164" fill="none" xmlns="http://www.w3.org/2000/svg">
<path d="M19.0764 15.1515C19.5079 7.51885 21.3311 4.19976 26.5596 1.53443C32.1854 -1.3343 41.0584 0.000719007 51.4992 5.2878C55.9963 7.56612 56.4542 7.61251 64.3354 6.60205C74.8112 5.25846 88.2975 5.2632 97.9664 6.61435C105.278 7.63614 105.758 7.58509 110.266 5.30202C125.087 -2.20286 136.787 -1.71182 141.024 6.59257C143.139 10.7377 143.531 21.4935 141.892 30.3646C140.982 35.2827 141.079 35.8968 143.269 39.1241C158.679 61.8327 147.576 98.6421 121.17 112.379C119.149 113.43 117.446 114.081 116.059 114.611C111.797 116.238 110.504 116.732 112.07 124.222C112.824 127.824 113.733 136.781 114.09 144.127C114.735 157.405 114.726 157.498 112.397 160.207C109.227 163.892 104.658 163.954 101.562 160.354C99.5432 158.007 99.3461 156.898 99.3461 147.842C99.3461 134.458 97.879 125.561 94.4127 117.938C90.2907 108.867 93.3465 105.484 102.773 103.457C115.876 100.638 126.109 92.5521 131.813 80.5107C137.236 69.0642 138.053 53.2461 128.249 43.6259C125.461 40.3125 125.267 37.3113 127.258 28.2613C128.001 24.8789 128.625 20.5152 128.644 18.5633C128.672 15.4807 128.391 15.0152 126.498 15.0152C125.3 15.0152 120.722 16.758 116.327 18.8878L109.311 22.2881C108.673 22.5972 107.96 22.716 107.256 22.6352C89.4171 20.5876 72.4668 20.556 54.5407 22.6432C53.8341 22.7255 53.1174 22.6066 52.4773 22.296L45.4656 18.8935C41.0697 16.7599 36.4922 15.0152 35.2945 15.0152C32.525 15.0152 32.4834 17.0598 35.0077 29.2075C36.5497 36.6264 37.5874 38.2795 33.1297 44.2116C26.4479 53.1035 24.7789 64.1451 28.362 75.7463C32.8779 90.3655 43.9366 100.242 59.4838 103.537C68.856 105.523 71.3057 108.115 67.7268 118.862C64.9096 127.32 63.1284 129.5 59.0343 129.5C53.5258 129.5 50.0752 124.728 51.9741 119.734C52.8105 117.534 52.5617 117.299 47.4014 115.417C31.6489 109.674 19.6006 96.8008 14.0921 79.8268C9.8344 66.7082 11.7078 49.633 18.5381 39.3124C20.8637 35.7984 20.8997 35.5003 19.8144 28.7732C19.2004 24.965 18.8683 18.8358 19.0764 15.1515Z" fill="#F1E3C2"/>
<path d="M13.5756 111.119C11.3057 107.714 6.70525 106.793 3.30029 109.064C-0.104605 111.333 -1.02474 115.934 1.24521 119.339C2.92106 121.853 4.92589 123.918 6.62841 125.62C6.94229 125.934 7.24727 126.237 7.54506 126.533C8.9712 127.95 10.2304 129.2 11.4951 130.685C14.2923 133.968 17.0829 138.391 18.6688 146.32C19.3753 149.853 21.9142 151.755 23.321 152.587C24.8466 153.488 26.5136 154.019 27.8853 154.365C30.6915 155.073 34.0979 155.44 37.3307 155.654C40.8797 155.89 44.7251 155.966 48.1637 155.987C48.1662 160.076 51.4826 163.391 55.5733 163.391C59.6656 163.391 62.9829 160.074 62.9829 155.982V148.572C62.9829 144.48 59.6656 141.162 55.5733 141.162C54.8748 141.162 54.1191 141.165 53.3186 141.168C48.9701 141.181 43.3021 141.198 38.3102 140.868C35.903 140.708 33.9242 140.482 32.4731 140.206C30.2385 131.434 26.6284 125.597 22.7762 121.075C21.0733 119.077 19.31 117.328 17.8757 115.905C17.6072 115.639 17.3502 115.384 17.1072 115.141C15.4523 113.487 14.3697 112.31 13.5756 111.119Z" fill="#F1E3C2"/>
</svg>
