<svg width="178" height="178" viewBox="0 0 178 178" fill="none" xmlns="http://www.w3.org/2000/svg">
<mask id="mask0_299_420" style="mask-type:luminance" maskUnits="userSpaceOnUse" x="0" y="0" width="178" height="178">
<path d="M0 0H177.832V177.832H0V0Z" fill="white"/>
</mask>
<g mask="url(#mask0_299_420)">
<path fill-rule="evenodd" clip-rule="evenodd" d="M50.2931 65.7942C42.8612 60.7926 37.9745 52.303 37.9745 42.6732C37.9745 27.9771 49.3558 15.9391 63.7852 14.8934V14.8193H113.183V14.8406C128.05 15.4242 139.924 27.6621 139.924 42.6732C139.924 52.303 135.037 60.7917 127.607 65.7942C135.037 70.7957 139.924 79.2853 139.924 88.916C139.924 104.299 127.454 116.77 112.071 116.77C105.287 116.78 98.7336 114.303 93.6508 109.809V117.66C93.6712 117.934 93.6813 118.211 93.6813 118.491V144.602C93.6813 154.768 85.4372 163.013 75.2702 163.013H65.8284C50.445 163.013 37.9745 150.542 37.9745 135.159C37.9745 125.529 42.8621 117.04 50.2931 112.038C42.8612 107.035 37.9745 98.5467 37.9745 88.916C37.9745 79.2862 42.8621 70.7966 50.2931 65.7942ZM49.1594 42.6732C49.1594 33.4667 56.6219 26.0042 65.8284 26.0042H82.4974V59.3422H65.8284C56.6219 59.3422 49.1594 51.8788 49.1594 42.6732ZM112.071 59.3422H95.4022V26.0042H112.071C121.277 26.0042 128.74 33.4667 128.74 42.6732C128.74 51.8788 121.277 59.3422 112.071 59.3422ZM65.8284 105.585C56.6219 105.585 49.1594 98.1216 49.1594 88.916C49.1594 79.7104 56.6219 72.247 65.8284 72.247H82.4974V105.585H65.8284ZM65.8284 151.829C56.6219 151.829 49.1594 144.364 49.1594 135.159C49.1594 125.953 56.6219 118.491 65.8284 118.491H82.4974V144.602C82.4969 146.518 81.7353 148.356 80.38 149.711C79.0248 151.067 77.1868 151.828 75.2702 151.829H65.8284ZM112.071 105.585C121.277 105.585 128.74 98.1216 128.74 88.916C128.74 79.7095 121.277 72.247 112.071 72.247C102.865 72.247 95.4022 79.7104 95.4022 88.916C95.4022 98.1216 102.865 105.585 112.071 105.585Z" fill="#F1E3C2"/>
</g>
</svg>
