<svg width="24" height="24" viewBox="0 0 24 24" fill="none" xmlns="http://www.w3.org/2000/svg">
<path d="M10.7418 13.822L10.2498 13.912C10.2269 13.7862 10.2529 13.6565 10.3227 13.5493C10.3924 13.4422 10.5005 13.3659 10.6248 13.336L10.7418 13.822ZM10.7258 9.417L10.7998 9.911C10.7212 9.92291 10.6409 9.91591 10.5655 9.89056C10.4902 9.86521 10.4219 9.82225 10.3665 9.76524C10.311 9.70824 10.27 9.63884 10.2468 9.56279C10.2235 9.48675 10.2187 9.40626 10.2328 9.328L10.7258 9.417ZM4.52484 10.788L9.98684 6.495L10.6048 7.282L5.14184 11.574L4.52484 10.788ZM4.52484 12.36C4.40587 12.2664 4.30969 12.1471 4.24356 12.0109C4.17743 11.8748 4.14307 11.7254 4.14307 11.574C4.14307 11.4226 4.17743 11.2732 4.24356 11.1371C4.30969 11.0009 4.40587 10.8816 4.52484 10.788L5.14184 11.574L4.52484 12.36ZM9.98684 16.653L4.52484 12.36L5.14184 11.574L10.6048 15.866L9.98684 16.653ZM11.5888 15.687C11.7538 16.593 10.7108 17.221 9.98684 16.653L10.6048 15.866L11.5888 15.687ZM11.2338 13.733L11.5888 15.687L10.6048 15.866L10.2498 13.912L11.2338 13.733ZM10.6248 13.336C13.2388 12.709 15.1528 13.087 16.5328 13.906C17.8998 14.716 18.6808 15.922 19.1098 16.847L18.2028 17.267C17.8248 16.452 17.1568 15.438 16.0228 14.766C14.9008 14.101 13.2608 13.732 10.8588 14.309L10.6248 13.336ZM19.1098 16.847C19.0872 16.7957 19.0467 16.7545 18.9958 16.731C18.9718 16.721 18.9588 16.723 18.9558 16.723C18.9339 16.7257 18.9136 16.7355 18.8978 16.751C18.8693 16.7739 18.8457 16.8024 18.8285 16.8347C18.8113 16.867 18.8009 16.9025 18.7978 16.939L19.7938 17.029C19.7498 17.515 19.3128 17.69 19.0638 17.717C18.8118 17.744 18.3878 17.668 18.2028 17.267L19.1098 16.847ZM18.7978 16.939C19.1098 13.451 18.1178 11.607 16.6638 10.666C15.1578 9.691 13.0068 9.579 10.7998 9.911L10.6498 8.923C12.9318 8.579 15.3888 8.649 17.2068 9.826C19.0768 11.037 20.1268 13.316 19.7938 17.029L18.7978 16.939ZM11.5888 7.461L11.2168 9.507L10.2328 9.327L10.6048 7.282L11.5888 7.461ZM9.98684 6.495C10.7108 5.927 11.7538 6.555 11.5888 7.461L10.6048 7.282L9.98684 6.495Z" fill="black"/>
</svg>
