<svg width="158" height="178" viewBox="0 0 158 178" fill="none" xmlns="http://www.w3.org/2000/svg">
<path d="M157.764 0L142.971 160.227L78.881 177.484L14.7896 160.227L0 0H157.764ZM127.956 32.5797H78.8233H28.8202L31.2116 51.9287H78.8233H81.4978L78.8233 53.0419L32.9517 72.147L34.473 91.0601L78.8233 91.2039L102.594 91.2792L101.072 116.497L78.823 122.761V122.742L78.6407 122.792L57.1535 117.368L55.8497 101.714H55.7785H35.8481H35.7779L38.3867 131.934L78.8237 143.892V143.871L78.8966 143.892L119.117 132.152L124.334 72.147H78.8237H78.7115L78.8237 72.0984L126.001 51.9287L127.956 32.5797Z" fill="#F1E3C2"/>
</svg>
