<svg width="178" height="178" viewBox="0 0 178 178" fill="none" xmlns="http://www.w3.org/2000/svg">
<path d="M140.917 37.0833V140.917H37.0833V37.0833H140.917ZM140.917 22.25H37.0833C33.1493 22.25 29.3764 23.8128 26.5946 26.5946C23.8128 29.3764 22.25 33.1493 22.25 37.0833V140.917C22.25 144.851 23.8128 148.624 26.5946 151.405C29.3764 154.187 33.1493 155.75 37.0833 155.75H140.917C144.851 155.75 148.624 154.187 151.405 151.405C154.187 148.624 155.75 144.851 155.75 140.917V37.0833C155.75 33.1493 154.187 29.3764 151.405 26.5946C148.624 23.8128 144.851 22.25 140.917 22.25Z" fill="#F1E3C2"/>
<path d="M91.225 120.002L86.9975 106.132H65.7116L61.4841 120.002H48.2083L68.7525 61.4841H83.5858L104.204 120.002H91.225ZM83.8083 95.7491C79.8775 83.215 77.7266 76.095 77.2075 74.4633C76.6883 72.8316 76.3916 71.4966 76.1691 70.5325C75.2792 73.9441 72.7575 82.3991 68.7525 95.7491H83.8083Z" fill="#F1E3C2"/>
<path d="M110.36 63.9316C110.36 60.0008 112.585 57.9983 116.961 57.9983C121.337 57.9983 123.562 60.0008 123.562 63.9316C123.618 64.7352 123.502 65.5416 123.22 66.2965C122.939 67.0513 122.499 67.737 121.93 68.3075C121.254 68.8999 120.466 69.3499 119.612 69.6303C118.758 69.9106 117.856 70.0157 116.961 69.9391C112.585 69.9391 110.36 67.9366 110.36 63.9316ZM123.042 120.002H111.25V75.5016H123.413L123.042 120.002Z" fill="#F1E3C2"/>
</svg>
