<svg width="156" height="94" viewBox="0 0 156 94" fill="none" xmlns="http://www.w3.org/2000/svg">
<path d="M38.9008 31.1206C44.0875 10.3735 57.0544 0 77.8015 0C108.922 0 112.812 23.3405 128.372 27.2305C138.746 29.8239 147.823 25.9338 155.603 15.5603C150.416 36.3074 137.449 46.6809 116.702 46.6809C85.5817 46.6809 81.6916 23.3405 66.1313 19.4504C55.7577 16.857 46.6809 20.7471 38.9008 31.1206ZM0 77.8015C5.18677 57.0544 18.1537 46.6809 38.9008 46.6809C70.0214 46.6809 73.9114 70.0214 89.4717 73.9114C99.8453 76.5048 108.922 72.6147 116.702 62.2412C111.516 82.9883 98.5486 93.3618 77.8015 93.3618C46.6809 93.3618 42.7908 70.0214 27.2305 66.1313C16.857 63.5379 7.78015 67.428 0 77.8015Z" fill="#F1E3C2"/>
</svg>
