<svg width="178" height="178" viewBox="0 0 178 178" fill="none" xmlns="http://www.w3.org/2000/svg">
<path d="M14.8193 88.9159C14.8262 78.5061 16.9962 68.2114 21.1916 58.6845L56.6099 155.603C44.0838 149.534 33.5203 140.06 26.1292 128.266C18.7382 116.472 14.8186 102.835 14.8193 88.9159ZM138.931 85.2111C138.135 93.3978 136.267 101.444 133.374 109.144L125.964 133.818L99.1414 54.3869L107.588 53.4977C108.324 53.3418 108.978 52.9249 109.43 52.324C109.882 51.7231 110.101 50.9788 110.047 50.2289C109.993 49.4789 109.669 48.774 109.135 48.2443C108.602 47.7147 107.894 47.3962 107.144 47.3477C107.144 47.3477 95.1401 48.3109 87.36 48.3109L67.8726 47.3477C67.1177 47.3821 66.4011 47.69 65.8566 48.2139C65.312 48.7378 64.9767 49.442 64.9132 50.195C64.8497 50.948 65.0623 51.6983 65.5114 52.3061C65.9605 52.9138 66.6154 53.3374 67.3539 53.4977L75.2081 54.3869L86.7672 85.8039L70.54 134.411L43.4948 54.3869L51.8677 53.4977C52.6012 53.3835 53.2698 53.0108 53.7527 52.4469C54.2356 51.883 54.501 51.1651 54.501 50.4227C54.501 49.6803 54.2356 48.9624 53.7527 48.3985C53.2698 47.8346 52.6012 47.4619 51.8677 47.3477C51.8677 47.3477 39.864 48.3109 32.0839 48.3109H26.9712C32.8534 39.3359 40.615 31.7456 49.7189 26.0649C58.8229 20.3843 69.0522 16.7488 79.6993 15.41C90.3463 14.0712 101.157 15.061 111.384 18.3108C121.611 21.5607 131.01 26.9932 138.931 34.2326H137.968C134.581 34.3296 131.37 35.7637 129.037 38.2213C126.705 40.6789 125.44 43.9602 125.52 47.3477C126.343 53.7225 128.906 59.7473 132.929 64.7604C136.892 70.8495 139.026 77.9466 139.079 85.2111M90.3239 95.3623L113.146 157.752L113.664 158.789C99.0056 163.982 83.0783 164.397 68.1689 159.975L90.3979 95.3623M153.973 53.3495C163.213 70.3231 165.457 90.2353 160.224 108.839C154.992 127.443 142.698 143.267 125.964 152.935L148.638 87.5081C152.245 79.1466 154.184 70.1606 154.343 61.0556L153.825 53.6459" fill="#F1E3C2"/>
</svg>
