<svg width="178" height="178" viewBox="0 0 178 178" fill="none" xmlns="http://www.w3.org/2000/svg">
<path d="M140.917 37.0833V140.917H37.0833V37.0833H140.917ZM140.917 22.25H37.0833C33.1493 22.25 29.3764 23.8128 26.5946 26.5946C23.8128 29.3764 22.25 33.1493 22.25 37.0833V140.917C22.25 144.851 23.8128 148.624 26.5946 151.405C29.3764 154.187 33.1493 155.75 37.0833 155.75H140.917C144.851 155.75 148.624 154.187 151.405 151.405C154.187 148.624 155.75 144.851 155.75 140.917V37.0833C155.75 33.1493 154.187 29.3764 151.405 26.5946C148.624 23.8128 144.851 22.25 140.917 22.25Z" fill="#F1E3C2"/>
<path d="M89.8158 77.6524C89.9756 80.3429 89.5249 83.0346 88.4974 85.5263C87.4699 88.018 85.8923 90.245 83.8825 92.0408C79.0984 95.6498 73.174 97.4139 67.195 97.0099H61.9292V117.702H49.5433V59.3333H68.1592C73.8963 58.9397 79.5901 60.5665 84.2533 63.9316C86.1874 65.6256 87.6979 67.7489 88.6638 70.1315C89.6297 72.5142 90.0243 75.0899 89.8158 77.6524ZM61.9292 86.9233H65.9342C68.8549 87.0689 71.744 86.262 74.1667 84.6241C75.1454 83.8593 75.9164 82.8608 76.4088 81.7205C76.9012 80.5801 77.0994 79.3343 76.985 78.0974C77.0932 76.9132 76.9363 75.7197 76.5258 74.6036C76.1153 73.4875 75.4614 72.4768 74.6117 71.6449C72.4627 70.0977 69.835 69.3619 67.195 69.5683H61.9292V86.9233Z" fill="#F1E3C2"/>
<path d="M128.457 104.501C128.562 106.497 128.186 108.489 127.36 110.309C126.534 112.129 125.282 113.724 123.71 114.958C119.459 117.62 114.474 118.866 109.47 118.518C106.686 118.556 103.905 118.333 101.163 117.851C98.9463 117.455 96.7815 116.808 94.7108 115.922V105.91C97.1063 107 99.5867 107.893 102.127 108.58C104.554 109.198 107.041 109.547 109.544 109.618C113.92 109.618 116.145 108.357 116.145 105.836C116.162 105.401 116.093 104.967 115.94 104.559C115.787 104.152 115.554 103.779 115.255 103.462C114.381 102.639 113.379 101.963 112.288 101.46L106.503 98.79C103.875 97.766 101.384 96.4208 99.0867 94.785C97.6102 93.6983 96.415 92.2743 95.6008 90.6317C94.814 88.781 94.4346 86.7827 94.4883 84.7725C94.419 82.9765 94.8041 81.192 95.6079 79.5844C96.4117 77.9767 97.6082 76.598 99.0867 75.5758C103.006 73.1892 107.559 72.0511 112.14 72.3125C117.557 72.3156 122.904 73.5321 127.789 75.8725L124.155 84.6242C122.123 83.7208 120.043 82.9286 117.925 82.2508C116.003 81.6601 114.003 81.3601 111.992 81.3608C108.357 81.3608 106.577 82.325 106.577 84.2533C106.608 84.8361 106.788 85.4013 107.1 85.8947C107.412 86.3881 107.845 86.7934 108.357 87.0717C110.705 88.5026 113.189 89.6952 115.774 90.6317C118.387 91.657 120.875 92.9757 123.191 94.5625C124.696 95.6698 125.916 97.1187 126.751 98.79C127.773 100.528 128.358 102.487 128.457 104.501Z" fill="#F1E3C2"/>
</svg>
