<svg width="178" height="178" viewBox="0 0 178 178" fill="none" xmlns="http://www.w3.org/2000/svg">
<path d="M133.374 116.702V50.0151H122.26V127.817H166.718V116.702H133.374Z" fill="#F1E3C2"/>
<path d="M100.031 50.0151H77.8015C74.8538 50.0151 72.0267 51.1861 69.9424 53.2705C67.858 55.3549 66.687 58.1819 66.687 61.1296V116.702C66.687 119.65 67.858 122.477 69.9424 124.561C72.0267 126.646 74.8538 127.817 77.8015 127.817H83.3588V138.931C83.3588 141.879 84.5298 144.706 86.6141 146.79C88.6985 148.875 91.5255 150.046 94.4733 150.046H105.588V138.931H94.4733V127.817H100.031C102.978 127.817 105.805 126.646 107.89 124.561C109.974 122.477 111.145 119.65 111.145 116.702V61.1296C111.145 58.1819 109.974 55.3549 107.89 53.2705C105.805 51.1861 102.978 50.0151 100.031 50.0151ZM77.8015 116.702V61.1296H100.031V116.702H77.8015Z" fill="#F1E3C2"/>
<path d="M44.458 127.817H11.1145V116.702H44.458V94.4731H22.229C19.2813 94.4731 16.4542 93.3022 14.3699 91.2178C12.2855 89.1334 11.1145 86.3064 11.1145 83.3586V61.1296C11.1145 58.1819 12.2855 55.3549 14.3699 53.2705C16.4542 51.1861 19.2813 50.0151 22.229 50.0151H55.5725V61.1296H22.229V83.3586H44.458C47.4058 83.3586 50.2328 84.5296 52.3171 86.614C54.4015 88.6984 55.5725 91.5254 55.5725 94.4731V116.702C55.5725 119.65 54.4015 122.477 52.3171 124.561C50.2328 126.646 47.4058 127.817 44.458 127.817Z" fill="#F1E3C2"/>
</svg>
