<svg width="178" height="178" viewBox="0 0 178 178" fill="none" xmlns="http://www.w3.org/2000/svg">
<path d="M140.917 37.0833V140.917H37.0833V37.0833H140.917ZM140.917 22.25H37.0833C33.1493 22.25 29.3764 23.8128 26.5946 26.5946C23.8128 29.3764 22.25 33.1493 22.25 37.0833V140.917C22.25 144.851 23.8128 148.624 26.5946 151.405C29.3764 154.187 33.1493 155.75 37.0833 155.75H140.917C144.851 155.75 148.624 154.187 151.405 151.405C154.187 148.624 155.75 144.851 155.75 140.917V37.0833C155.75 33.1493 154.187 29.3764 151.405 26.5946C148.624 23.8128 144.851 22.25 140.917 22.25Z" fill="#F1E3C2"/>
<path d="M92.4858 78.0233C92.6494 80.7073 92.2078 83.3938 91.1937 85.8842C90.1795 88.3747 88.6187 90.6054 86.6267 92.4116C81.8138 96.0197 75.8668 97.7828 69.865 97.3808H64.5992V118.147H51.9167V59.8524H70.8292C76.5663 59.4589 82.2602 61.0857 86.9233 64.4508C88.8319 66.1329 90.3267 68.2326 91.2915 70.5867C92.2563 72.9407 92.665 75.4855 92.4858 78.0233ZM64.5992 87.2941H68.6783C71.6882 87.5052 74.6843 86.7236 77.2075 85.0691C78.1538 84.2602 78.9005 83.2436 79.3894 82.0986C79.8782 80.9536 80.096 79.7113 80.0258 78.4683C80.1228 77.2961 79.9604 76.1169 79.5503 75.0145C79.1401 73.9121 78.4921 72.9136 77.6525 72.0899C75.5093 70.5307 72.8771 69.7937 70.2358 70.0133H64.5992V87.2941Z" fill="#F1E3C2"/>
<path d="M121.633 72.7575C123.012 72.583 124.408 72.583 125.787 72.7575L124.823 84.105C123.654 83.8475 122.459 83.7231 121.263 83.7341C117.978 83.5258 114.738 84.5879 112.214 86.7008C111.109 87.7881 110.247 89.0971 109.685 90.5417C109.122 91.9862 108.872 93.5335 108.951 95.0816V117.777H96.7875V73.2766H105.984L107.764 80.6933H108.358C109.689 78.2397 111.63 76.1707 113.994 74.6858C116.294 73.3018 118.952 72.6308 121.633 72.7575Z" fill="#F1E3C2"/>
</svg>
