<svg width="176" height="176" viewBox="0 0 176 176" fill="none" xmlns="http://www.w3.org/2000/svg">
<path d="M88 0C39.402 0 0 39.402 0 88C0 136.598 39.402 176 88 176C136.598 176 176 136.598 176 88C176 39.402 136.598 0 88 0ZM51.0547 56.32C56.584 56.32 60.8593 60.346 61.358 65.12C61.864 69.3953 60.104 73.1647 55.33 75.4307C52.8147 76.6847 51.81 76.692 51.304 75.9367C51.0547 75.4307 51.304 74.932 51.81 74.426C56.3347 70.6567 56.3347 67.6353 55.8287 63.3673C55.5793 60.5953 53.57 58.8353 51.5533 58.8353C42.7533 58.8353 30.184 78.4447 31.944 92.7813C32.6993 98.3107 35.97 104.852 43.01 104.852C45.2687 104.852 47.7767 104.097 50.05 103.092C53.7167 101.156 55.9093 99.6453 58.0947 97.2253C57.5593 90.7353 63.2573 82.2213 71.6687 82.2213C75.4453 82.2213 78.4593 83.7247 78.7087 86.4967C79.2073 90.266 75.944 90.7647 74.9393 90.7647C73.9347 90.7647 72.1673 90.5153 72.1673 89.518C71.918 88.506 74.4333 89.0047 74.184 86.746C73.9273 85.2353 72.424 84.7367 70.9133 84.7367C65.6333 84.7367 62.6193 92.026 63.3673 96.5507C63.624 98.5673 64.6287 100.577 66.6453 100.577C68.1487 100.577 70.4147 98.3033 71.17 95.04C71.6687 92.7813 73.6853 91.2707 75.4453 91.2707C76.1933 91.2707 76.692 91.52 76.9487 92.5247V93.5367C76.6993 94.5413 75.944 97.5553 76.2007 98.3107C76.2007 98.8167 76.45 99.5647 77.4473 99.5647C78.122 99.5647 80.6447 98.2447 83.1453 96.1987C84.0033 91.872 85.0007 86.68 85.0007 86.2473C85.25 84.4873 86.0053 82.7273 89.5253 82.7273C90.2807 82.7273 90.7793 82.9767 91.0287 83.9813V84.9933L90.0313 89.518C93.2947 85.2427 98.076 82.2287 101.09 82.2287C102.351 82.2287 103.356 82.9767 103.356 84.238C103.356 84.9933 103.356 86.2473 102.85 87.5087C101.845 90.2733 100.584 94.5487 99.8287 98.318C99.8287 99.3227 100.085 100.327 101.347 100.327C102.608 100.327 106.37 98.8167 109.384 94.798L109.435 94.7687C109.421 94.27 109.384 93.786 109.384 93.2873C109.384 90.2733 109.641 87.758 110.147 85.998C110.645 83.9887 113.161 82.2287 114.671 82.2287C115.427 82.2287 116.175 82.7347 116.175 83.4827C116.175 83.7393 116.175 84.238 115.925 84.4873C114.921 87.758 114.165 90.772 114.165 93.7933C114.165 95.5533 114.415 98.0613 114.913 99.572C114.913 99.8213 115.17 100.078 115.427 100.078C115.925 100.078 119.445 96.8147 121.953 92.5393C119.695 91.0287 118.433 88.5133 118.433 85.4993C118.433 80.2193 121.704 77.4547 124.725 77.4547C127.241 77.4547 129.25 79.2147 129.25 82.7347C129.25 84.9933 128.495 87.5013 127.241 89.7747H127.989C128.786 89.8006 129.58 89.6572 130.319 89.3538C131.057 89.0504 131.722 88.594 132.271 88.0147C132.505 87.6359 132.847 87.3367 133.254 87.1567C135.711 84.04 139.341 81.73 143.594 81.73C147.114 81.73 150.37 83.2333 150.627 85.998C151.125 89.7747 147.855 90.53 146.85 90.53L146.835 90.5153C145.823 90.5153 144.071 90.2587 144.071 89.254C144.071 88.2493 146.337 88.7553 146.08 86.4967C145.831 84.986 144.32 84.48 142.809 84.48C137.779 84.48 134.523 91.014 135.271 96.294C135.52 98.3107 136.525 100.569 138.534 100.569C140.045 100.569 142.311 98.3107 143.315 95.04C143.814 93.0307 145.831 91.2707 147.591 91.2707C148.346 91.2707 148.837 91.52 149.094 92.5247C149.094 93.0307 149.094 94.0353 148.089 97.306C146.843 99.5647 146.835 100.826 147.085 101.831C147.334 103.84 148.339 105.351 149.351 106.106C149.6 106.355 149.849 106.854 149.849 106.854C149.849 107.36 149.6 107.866 148.845 107.866C148.595 107.866 148.346 107.866 148.089 107.609C144.32 106.106 142.809 103.591 142.303 101.075C140.8 102.835 139.04 103.84 137.023 103.84C133.76 103.84 130.497 100.826 129.983 97.0493C129.837 95.4419 130.025 93.8217 130.533 92.29C129.045 93.2433 127.439 93.7787 125.965 93.7787H124.718C121.44 98.56 117.92 101.831 115.405 103.334C114.55 103.788 113.606 104.048 112.64 104.097C112.141 104.097 111.386 103.84 111.137 103.334C110.44 102.219 109.993 100.459 109.721 98.4427C106.194 102.307 101.325 104.346 99.066 104.346C96.5507 104.346 95.0473 102.835 94.798 100.313V97.5553C95.546 92.026 97.5627 88.7553 97.5627 87.7507C97.5558 87.618 97.5005 87.4925 97.4072 87.3979C97.3139 87.3032 97.1892 87.2461 97.0567 87.2373C95.2967 87.2373 89.518 93.28 88.506 97.306L87.7507 100.569C87.252 102.835 84.986 104.346 83.4827 104.346C82.7273 104.346 82.2213 104.089 81.972 103.085V102.08L82.3093 100.371C79.1193 102.645 75.9293 104.097 74.426 104.097C72.1673 104.097 70.906 102.835 70.6567 101.075C69.146 103.085 67.3933 104.097 65.1273 104.097C62.546 104.097 60.0233 102.337 58.806 99.748C57.0167 101.765 54.9707 103.803 52.558 105.351C49.038 107.617 45.0193 109.377 40.238 109.377C35.97 109.377 32.1933 107.111 30.184 105.101C27.1627 102.337 25.41 98.0613 25.1533 94.0353C23.65 81.7153 31.1887 65.8753 42.7533 58.8353C45.5253 57.332 48.29 56.32 51.0547 56.32ZM122.701 80.454C121.939 80.454 121.44 81.7153 121.44 82.9693C121.44 84.9787 122.445 87.2447 123.706 88.506C124.203 87.1356 124.457 85.6886 124.454 84.2307C124.454 81.7153 123.457 80.454 122.701 80.454Z" fill="#F1E3C2"/>
</svg>
