<svg width="140" height="140" viewBox="0 0 140 140" fill="none" xmlns="http://www.w3.org/2000/svg">
<path d="M33.1567 70C32.6726 70.0008 32.1931 69.9059 31.7458 69.7208C31.2985 69.5358 30.8922 69.2641 30.5501 68.9216C30.2081 68.579 29.9371 68.1722 29.7528 67.7246C29.5684 67.277 29.4743 66.7974 29.4758 66.3133V25.7892C29.4758 23.7533 31.1208 22.1025 33.1567 22.1025H46.9817C49.665 22.1025 52.1675 22.3728 54.4892 22.9133C56.8614 23.3994 58.9089 24.255 60.6317 25.48C62.3972 26.6583 63.7875 28.2528 64.8025 30.2633C65.8136 32.2156 66.3192 34.6383 66.3192 37.5317C66.3192 40.3239 65.7883 42.7486 64.7267 44.8058C63.7578 46.8022 62.3282 48.5397 60.5558 49.875C58.7125 51.2331 56.6281 52.2288 54.4133 52.8092C52.0878 53.4508 49.6125 53.7697 46.9875 53.7658H44.3042C43.8196 53.7643 43.3395 53.8586 42.8915 54.0433C42.4435 54.2281 42.0365 54.4996 41.6939 54.8422C41.3512 55.1848 41.0797 55.5919 40.895 56.0399C40.7103 56.4878 40.616 56.9679 40.6175 57.4525V66.3192C40.6183 66.8033 40.5234 67.2827 40.3383 67.73C40.1533 68.1773 39.8816 68.5837 39.5391 68.9257C39.1965 69.2677 38.7897 69.5387 38.3421 69.7231C37.8945 69.9074 37.4149 70.0015 36.9308 70H33.1567ZM40.6175 41.4867C40.6175 43.5225 42.2683 45.1733 44.3042 45.1733H46.305C52.3717 45.1733 55.405 42.6261 55.405 37.5317C55.405 35.035 54.6194 33.2714 53.0483 32.2408C51.5317 31.2142 49.2839 30.7008 46.305 30.7008H44.3042C43.8201 30.6993 43.3405 30.7934 42.8929 30.9778C42.4453 31.1621 42.0385 31.4331 41.6959 31.7751C41.3534 32.1172 41.0817 32.5235 40.8967 32.9708C40.7116 33.4181 40.6167 33.8976 40.6175 34.3817V41.4867ZM77.3675 117.892C76.8839 117.892 76.4049 117.798 75.958 117.613C75.5111 117.428 75.105 117.157 74.763 116.815C74.4211 116.473 74.15 116.067 73.9653 115.62C73.7806 115.173 73.6859 114.694 73.6867 114.211V73.6867C73.6851 73.2026 73.7792 72.723 73.9636 72.2754C74.148 71.8278 74.4189 71.421 74.761 71.0784C75.103 70.7359 75.5093 70.4642 75.9566 70.2792C76.404 70.0941 76.8834 69.9992 77.3675 70H90.2183C92.785 70 95.1494 70.1944 97.3117 70.5833C99.5283 70.9333 101.442 71.5711 103.052 72.4967C104.662 73.43 105.92 74.655 106.826 76.1717C107.783 77.6883 108.261 79.5978 108.261 81.9C108.261 82.9811 108.086 84.0583 107.736 85.1317C107.43 86.2238 106.915 87.2461 106.219 88.1417C104.678 90.2045 102.453 91.6519 99.9425 92.225C99.9035 92.2344 99.8688 92.2569 99.8444 92.2887C99.82 92.3206 99.8072 92.3599 99.8083 92.4C99.8083 92.4875 99.8667 92.5633 99.9542 92.575C103.404 93.2244 106.021 94.4417 107.806 96.2267C109.618 98.035 110.524 100.557 110.524 103.792C110.524 106.242 110.046 108.348 109.089 110.11C108.13 111.877 106.759 113.388 105.093 114.514C103.236 115.702 101.193 116.571 99.05 117.087C96.6242 117.643 94.142 117.915 91.6533 117.898L77.3675 117.892ZM84.7817 85.5633C84.7817 87.5992 86.4325 89.2442 88.4683 89.2442H89.6933C92.4078 89.2442 94.3697 88.7308 95.5792 87.7042C96.7886 86.6775 97.3914 85.2328 97.3875 83.37C97.3875 81.6083 96.7594 80.36 95.5033 79.625C94.2978 78.8394 92.3844 78.4467 89.7633 78.4467H88.4683C87.9838 78.4451 87.5037 78.5394 87.0557 78.7242C86.6077 78.9089 86.2007 79.1804 85.858 79.523C85.5154 79.8657 85.2439 80.2727 85.0592 80.7207C84.8744 81.1687 84.7801 81.6488 84.7817 82.1333V85.5633ZM84.7817 105.764C84.7817 107.8 86.4325 109.445 88.4683 109.445H90.7433C96.6856 109.445 99.6567 107.291 99.6567 102.982C99.6567 100.882 98.9256 99.365 97.4633 98.4317C96.0594 97.4983 93.8194 97.0317 90.7433 97.0317H88.4683C87.9838 97.0301 87.5037 97.1244 87.0557 97.3092C86.6077 97.4939 86.2007 97.7654 85.858 98.108C85.5154 98.4507 85.2439 98.8577 85.0592 99.3057C84.8744 99.7537 84.7801 100.234 84.7817 100.718V105.764ZM8.1025 0C3.66917 0 0 3.66917 0 8.1025V87.675C0.0152542 89.8197 0.873622 91.8724 2.38968 93.3895C3.90573 94.9067 5.95777 95.7665 8.1025 95.7833H47.8917C48.3753 95.7833 48.8541 95.6879 49.3007 95.5025C49.7474 95.3171 50.153 95.0453 50.4944 94.7028C50.8358 94.3603 51.1063 93.9538 51.2903 93.5066C51.4743 93.0594 51.5682 92.5803 51.5667 92.0967C51.5667 91.122 51.1795 90.1872 50.4903 89.4981C49.8011 88.8089 48.8663 88.4217 47.8917 88.4217H8.1025C7.6475 88.4217 7.37333 88.13 7.37333 87.675V8.10833C7.37333 7.65333 7.6475 7.37917 8.1025 7.37917H87.675C88.13 7.37917 88.4158 7.65333 88.4158 8.10833V47.8917C88.4158 48.3748 88.5111 48.8531 88.6961 49.2994C88.8812 49.7456 89.1524 50.151 89.4943 50.4924C89.8362 50.8337 90.242 51.1043 90.6885 51.2886C91.1351 51.4729 91.6136 51.5674 92.0967 51.5667C92.5807 51.569 93.0605 51.4756 93.5084 51.292C93.9563 51.1083 94.3635 50.838 94.7066 50.4965C95.0497 50.155 95.322 49.7491 95.5078 49.3021C95.6935 48.8551 95.7892 48.3758 95.7892 47.8917V8.1025C95.7724 5.95877 94.9133 3.9076 93.3975 2.39171C91.8816 0.87582 89.8304 0.0167784 87.6867 0L8.1025 0ZM92.1083 44.205C91.6233 44.2035 91.1427 44.298 90.6943 44.483C90.246 44.6681 89.8387 44.9402 89.496 45.2834C89.1532 45.6267 88.8819 46.0344 88.6975 46.4831C88.5131 46.9317 88.4194 47.4124 88.4217 47.8975C88.4217 48.3806 88.5169 48.859 88.702 49.3052C88.887 49.7515 89.1582 50.1568 89.5001 50.4982C89.842 50.8395 90.2478 51.1101 90.6944 51.2944C91.1409 51.4788 91.6194 51.5733 92.1025 51.5725H131.898C132.353 51.5725 132.627 51.8642 132.627 52.3192V131.892C132.627 132.347 132.353 132.621 131.898 132.621H52.325C51.8758 132.621 51.5842 132.347 51.5842 131.892V92.1083C51.5842 91.6252 51.4889 91.1469 51.3039 90.7006C51.1188 90.2544 50.8476 89.849 50.5057 89.5077C50.1639 89.1663 49.758 88.8957 49.3115 88.7114C48.8649 88.5271 48.3864 88.4326 47.9033 88.4333C47.4193 88.431 46.9395 88.5244 46.4916 88.708C46.0437 88.8917 45.6365 89.162 45.2934 89.5035C44.9503 89.845 44.678 90.2509 44.4922 90.6979C44.3065 91.1449 44.2108 91.6243 44.2108 92.1083V131.903C44.2291 134.046 45.0888 136.096 46.6046 137.61C48.1203 139.125 50.1706 139.983 52.3133 140H131.898C136.331 140 140 136.331 140 131.898V52.325C139.985 50.1803 139.126 48.1276 137.61 46.6105C136.094 45.0933 134.042 44.2335 131.898 44.2167L92.1083 44.205Z" fill="#F1E3C2"/>
</svg>
